<svg width="36" height="36" viewBox="0 0 36 36" fill="none" xmlns="http://www.w3.org/2000/svg">
<rect width="36" height="36" rx="12" fill="#F6F6F6"/>
<path d="M17.9628 14.0753C15.8129 14.0753 14.0787 15.8095 14.0787 17.9594C14.0787 20.1094 15.8129 21.8435 17.9628 21.8435C20.1127 21.8435 21.8469 20.1094 21.8469 17.9594C21.8469 15.8095 20.1127 14.0753 17.9628 14.0753ZM17.9628 20.4846C16.5734 20.4846 15.4376 19.3521 15.4376 17.9594C15.4376 16.5667 16.5701 15.4343 17.9628 15.4343C19.3555 15.4343 20.488 16.5667 20.488 17.9594C20.488 19.3521 19.3521 20.4846 17.9628 20.4846ZM22.9117 13.9164C22.9117 14.4201 22.5061 14.8224 22.0058 14.8224C21.5021 14.8224 21.0998 14.4167 21.0998 13.9164C21.0998 13.4161 21.5055 13.0105 22.0058 13.0105C22.5061 13.0105 22.9117 13.4161 22.9117 13.9164ZM25.4842 14.8359C25.4267 13.6224 25.1495 12.5474 24.2605 11.6617C23.3748 10.776 22.2999 10.4989 21.0863 10.438C19.8355 10.367 16.0867 10.367 14.8359 10.438C13.6257 10.4955 12.5508 10.7727 11.6617 11.6583C10.7727 12.544 10.4989 13.619 10.438 14.8325C10.367 16.0833 10.367 19.8322 10.438 21.0829C10.4955 22.2965 10.7727 23.3715 11.6617 24.2571C12.5508 25.1428 13.6224 25.42 14.8359 25.4808C16.0867 25.5518 19.8355 25.5518 21.0863 25.4808C22.2999 25.4234 23.3748 25.1462 24.2605 24.2571C25.1462 23.3715 25.4234 22.2965 25.4842 21.0829C25.5552 19.8322 25.5552 16.0867 25.4842 14.8359ZM23.8684 22.4249C23.6047 23.0875 23.0943 23.5979 22.4283 23.865C21.4311 24.2605 19.0648 24.1692 17.9628 24.1692C16.8608 24.1692 14.4911 24.2571 13.4973 23.865C12.8347 23.6013 12.3243 23.0909 12.0572 22.4249C11.6617 21.4277 11.753 19.0614 11.753 17.9594C11.753 16.8574 11.6651 14.4877 12.0572 13.4939C12.3209 12.8313 12.8313 12.3209 13.4973 12.0538C14.4945 11.6583 16.8608 11.7496 17.9628 11.7496C19.0648 11.7496 21.4345 11.6617 22.4283 12.0538C23.0909 12.3175 23.6013 12.828 23.8684 13.4939C24.2639 14.4911 24.1726 16.8574 24.1726 17.9594C24.1726 19.0614 24.2639 21.4311 23.8684 22.4249Z" fill="#666666"/>
</svg>
