<svg width="83" height="124" viewBox="0 0 83 124" fill="none" xmlns="http://www.w3.org/2000/svg">
<path d="M3.03702 109.646C2.67459 109.396 2.56133 108.895 2.8105 108.509C3.05967 108.145 3.55801 108.031 3.94309 108.281C4.16961 108.441 4.41878 108.6 4.69061 108.759C6.54807 109.896 8.29227 110.465 9.71934 110.465C11.0105 110.465 12.0751 109.964 12.732 108.986C12.7773 108.918 12.8227 108.873 12.8227 108.827C13.0039 108.509 13.1624 108.19 13.253 107.872C13.4343 107.212 13.4116 106.53 13.1398 105.916C12.868 105.256 12.3017 104.642 11.4409 104.119C10.8746 103.778 10.1497 103.46 9.28895 103.21C7.09171 102.595 5.48343 101.708 4.6 100.549C3.64862 99.2522 3.58066 97.7057 4.6 95.8179C5.27956 94.5671 6.66133 93.7938 8.42818 93.6573C9.94586 93.5436 11.7807 93.9075 13.6381 94.8627C14.0459 95.0674 14.2044 95.5678 14.0006 95.9544C13.7967 96.3638 13.2983 96.523 12.9133 96.3183C11.3276 95.4995 9.80994 95.2039 8.56409 95.2949C7.36354 95.3858 6.43481 95.8634 6.04972 96.614C5.37017 97.8649 5.37017 98.8428 5.93646 99.5934C6.57072 100.458 7.90718 101.14 9.74199 101.663C10.7387 101.936 11.5768 102.323 12.279 102.755C13.4343 103.46 14.2044 104.347 14.6122 105.302C15.0425 106.28 15.0878 107.349 14.7934 108.35C14.6575 108.804 14.4536 109.282 14.1818 109.714C14.1138 109.805 14.0685 109.896 14.0459 109.942C13.0718 111.397 11.5315 112.125 9.67403 112.125C7.95249 112.125 5.93646 111.488 3.80718 110.192C3.60332 110.01 3.33149 109.851 3.03702 109.646Z" fill="#EA501F"/>
<path d="M17.5116 94.4305C17.5116 93.9984 17.874 93.6572 18.3271 93.6572C18.7801 93.6572 19.1425 93.9984 19.1425 94.4305V111.329C19.1425 111.761 18.7801 112.102 18.3271 112.102C17.874 112.102 17.5116 111.761 17.5116 111.329V94.4305Z" fill="#EA501F"/>
<path d="M19.1879 104.961C18.8934 105.302 18.3951 105.37 18.0326 105.074C17.6929 104.779 17.6249 104.278 17.9194 103.915C19.1652 102.391 20.5696 101.458 21.9514 101.049C22.9481 100.753 23.9221 100.73 24.7603 100.958C25.6437 101.208 26.4138 101.708 26.9575 102.482C27.4785 103.21 27.773 104.142 27.773 105.256V111.306C27.773 111.761 27.4105 112.125 26.9575 112.125C26.5045 112.125 26.142 111.761 26.142 111.306V105.256C26.142 104.483 25.9608 103.869 25.6437 103.414C25.3266 102.982 24.8962 102.686 24.3525 102.527C23.7862 102.368 23.1293 102.391 22.4271 102.595C21.3398 102.937 20.2072 103.71 19.1879 104.961Z" fill="#EA501F"/>
<path d="M35.7691 100.799C37.332 100.799 38.7365 101.436 39.7558 102.459C40.7751 103.483 41.4094 104.893 41.4094 106.462C41.4094 108.031 40.7751 109.441 39.7558 110.465C38.7365 111.488 37.332 112.125 35.7691 112.125C34.2061 112.125 32.8017 111.488 31.7823 110.465C30.763 109.441 30.1287 108.031 30.1287 106.462C30.1287 104.893 30.763 103.483 31.7823 102.459C32.8017 101.436 34.2287 100.799 35.7691 100.799ZM38.6232 103.596C37.8983 102.868 36.879 102.414 35.7691 102.414C34.6591 102.414 33.6624 102.868 32.9149 103.596C32.19 104.324 31.737 105.348 31.737 106.462C31.737 107.576 32.19 108.6 32.9149 109.328C33.6398 110.055 34.6591 110.51 35.7691 110.51C36.879 110.51 37.8757 110.055 38.6232 109.328C39.3481 108.6 39.8011 107.576 39.8011 106.462C39.8011 105.348 39.3481 104.324 38.6232 103.596Z" fill="#EA501F"/>
<path d="M43.7199 101.618C43.7199 101.163 44.0823 100.799 44.5354 100.799C44.9884 100.799 45.3508 101.163 45.3508 101.618V102.641C45.4188 102.573 45.4641 102.505 45.5321 102.459C46.5514 101.436 47.9558 100.799 49.5188 100.799C51.0818 100.799 52.4862 101.436 53.5055 102.459C54.5249 103.483 55.1591 104.893 55.1591 106.462C55.1591 108.031 54.5249 109.441 53.5055 110.465C52.4862 111.488 51.0818 112.125 49.5188 112.125C47.9558 112.125 46.5514 111.488 45.5321 110.465C45.4641 110.397 45.4188 110.328 45.3508 110.283V117.72C45.3508 118.175 44.9884 118.539 44.5354 118.539C44.0823 118.539 43.7199 118.175 43.7199 117.72V101.618ZM52.3503 103.596C51.6254 102.868 50.6061 102.414 49.4962 102.414C48.3862 102.414 47.3895 102.868 46.642 103.596C45.9171 104.324 45.4641 105.348 45.4641 106.462C45.4641 107.576 45.9171 108.6 46.642 109.328C47.3669 110.055 48.3862 110.51 49.4962 110.51C50.6061 110.51 51.6028 110.055 52.3503 109.328C53.0752 108.6 53.5282 107.576 53.5282 106.462C53.5282 105.348 53.0752 104.324 52.3503 103.596Z" fill="#EA501F"/>
<path d="M62.8155 100.799C64.1973 100.799 65.4658 101.345 66.3945 102.3C67.1647 103.073 67.4818 103.846 67.7536 104.665C68.4558 106.962 67.1194 106.871 66.7116 106.871H59.2139C59.2818 107.417 59.4177 107.918 59.5763 108.372C59.8708 109.077 60.3011 109.601 60.8448 109.964C61.4111 110.328 62.136 110.51 62.9741 110.51C63.8801 110.51 64.9448 110.26 66.1227 109.76C66.5304 109.578 67.0061 109.782 67.1873 110.192C67.3685 110.601 67.1647 111.079 66.7569 111.261C65.3978 111.829 64.1293 112.102 62.9967 112.125C61.8415 112.148 60.8221 111.875 59.984 111.329C59.1459 110.783 58.421 110.033 58.0813 108.986C57.3111 106.689 57.2884 104.415 59.2365 102.3C60.1426 101.322 61.4337 100.799 62.8155 100.799ZM65.2619 103.46C64.605 102.823 63.7442 102.436 62.8155 102.436C61.8868 102.436 61.026 102.823 60.3691 103.46C59.8934 103.937 59.5083 104.529 59.3045 105.211H66.3492C66.1 104.529 65.7376 103.937 65.2619 103.46Z" fill="#EA501F"/>
<path d="M75.1834 100.799C76.5652 100.799 77.8337 101.345 78.7624 102.3C79.5326 103.073 79.8497 103.846 80.1216 104.665C80.8238 106.962 79.4873 106.871 79.0796 106.871H71.5818C71.6497 107.417 71.7856 107.918 71.9442 108.372C72.2387 109.077 72.6691 109.601 73.2127 109.964C73.779 110.328 74.5039 110.51 75.342 110.51C76.2481 110.51 77.3127 110.26 78.4906 109.76C78.8983 109.578 79.374 109.782 79.5553 110.192C79.7365 110.601 79.5326 111.079 79.1249 111.261C77.7658 111.829 76.4972 112.102 75.3646 112.125C74.2094 112.148 73.1901 111.875 72.3519 111.329C71.5138 110.783 70.789 110.033 70.4492 108.986C69.679 106.689 69.6564 104.415 71.6044 102.3C72.5105 101.322 73.8017 100.799 75.1834 100.799ZM77.6298 103.46C76.9729 102.823 76.1122 102.436 75.1834 102.436C74.2547 102.436 73.3939 102.823 72.737 103.46C72.2613 103.937 71.8763 104.529 71.6724 105.211H78.7171C78.468 104.529 78.1055 103.937 77.6298 103.46Z" fill="#EA501F"/>
<path d="M8.76795 26.8601H25.8249C26.3459 21.0606 27.9541 15.8523 30.2646 11.8267C33.3226 6.50479 37.6718 3.22974 42.5873 3.22974C47.5028 3.22974 51.8293 6.52753 54.9099 11.8267C57.2204 15.8296 58.8287 21.0606 59.3497 26.8601H76.384C78.4 26.8601 80.2122 28.5204 80.0536 30.5446L76.6331 78.4649C76.2028 84.4692 72.4425 87.9034 66.9834 87.9034H18.1912C12.1204 87.9034 8.90386 83.6504 8.54143 78.4649L5.09834 30.5673C4.96242 28.5431 6.75193 26.8601 8.76795 26.8601ZM30.0834 26.8601H55.0459C54.5475 21.8338 53.1657 17.3761 51.195 13.9646C48.9298 9.98453 45.8492 7.5055 42.5873 7.5055C39.3028 7.5055 36.2447 9.98453 33.9342 13.9874C31.9635 17.3761 30.6044 21.8566 30.0834 26.8601Z" fill="#EA501F"/>
<path d="M30.1966 71.096C29.4038 70.5502 29.2 69.4813 29.7436 68.6852C30.2872 67.8892 31.3519 67.6845 32.1447 68.2304C32.643 68.5715 33.164 68.9127 33.7303 69.2538C37.7171 71.6874 41.3867 72.8928 44.4447 72.8928C47.2082 72.8928 49.4508 71.8466 50.8779 69.7314C50.9685 69.5722 51.0591 69.4813 51.0817 69.413C51.4895 68.7535 51.7839 68.0484 51.9878 67.3661C52.3955 65.956 52.3276 64.5005 51.7613 63.1813C51.1497 61.794 49.9718 60.4521 48.137 59.3377C46.9138 58.5872 45.3961 57.9276 43.5613 57.4273C38.895 56.1081 35.4519 54.2432 33.5944 51.7414C31.5558 48.9894 31.3972 45.6689 33.5718 41.6433C35.0215 38.9823 37.9889 37.3221 41.7491 37.0264C44.9884 36.7762 48.8845 37.5495 52.8486 39.5737C53.7093 40.0058 54.0491 41.052 53.5961 41.9162C53.143 42.7805 52.1237 43.1216 51.2629 42.6668C47.8878 40.9383 44.6712 40.2787 41.9983 40.4834C39.4386 40.6881 37.4906 41.6888 36.6298 43.2809C35.1801 45.9418 35.2027 48.0342 36.3806 49.6263C37.7397 51.4685 40.5712 52.9013 44.5127 54.0157C46.6419 54.6298 48.4541 55.4031 49.9491 56.3128C52.4182 57.8139 54.0718 59.7016 54.9552 61.7485C55.8613 63.8636 55.9745 66.0925 55.3629 68.2759C55.0911 69.2538 54.6607 70.2318 54.0718 71.187C53.9359 71.3917 53.8453 71.5509 53.7773 71.6646C51.6707 74.7805 48.4314 76.327 44.49 76.3498C40.7977 76.3498 36.4939 74.9852 31.9635 72.2105C31.3972 71.8921 30.8082 71.5282 30.1966 71.096Z" fill="white"/>
</svg>
