<svg width="36" height="36" viewBox="0 0 36 36" fill="none" xmlns="http://www.w3.org/2000/svg">
<rect width="36" height="36" rx="12" fill="#F6F6F6"/>
<path d="M26.6056 14.5799C26.6166 14.7337 26.6166 14.8874 26.6166 15.0412C26.6166 19.7305 23.0475 25.1337 16.5241 25.1337C14.5144 25.1337 12.6475 24.5516 11.077 23.5413C11.3626 23.5742 11.6371 23.5852 11.9336 23.5852C13.5919 23.5852 15.1184 23.0251 16.3374 22.0697C14.778 22.0367 13.4711 21.0154 13.0208 19.6097C13.2405 19.6426 13.4601 19.6646 13.6908 19.6646C14.0092 19.6646 14.3277 19.6206 14.6242 19.5438C12.9989 19.2143 11.7798 17.7867 11.7798 16.0625V16.0186C12.2521 16.2822 12.8012 16.4469 13.3832 16.4688C12.4278 15.8318 11.8018 14.7446 11.8018 13.5146C11.8018 12.8557 11.9775 12.2517 12.285 11.7246C14.0312 13.8771 16.6559 15.2827 19.599 15.4365C19.5441 15.1729 19.5112 14.8984 19.5112 14.6239C19.5112 12.669 21.0926 11.0767 23.0584 11.0767C24.0797 11.0767 25.0022 11.505 25.6501 12.1968C26.4518 12.0431 27.2205 11.7466 27.9015 11.3402C27.6379 12.1639 27.0778 12.8558 26.342 13.295C27.0558 13.2182 27.7477 13.0205 28.3846 12.7459C27.9015 13.4488 27.2975 14.0747 26.6056 14.5799Z" fill="#666666"/>
</svg>
